# xmcd
#
# Track frame offsets: 
#        150
#        11893
#        33137
#        57017
#        78211
#        99680
#        121424
#        134934
#        152776
#        172970
#        187690
#        197124
#        214113
#        241124
#        256997
#        270995
#        285955
#        311488
#        324249
#        339481
#
# Disc length: 4769 seconds
#
# Revision: 0
# Processed by: cddbd v1.5.2PL0 Copyright (c) Steve Scherf et al.
# Submitted via: ExactAudioCopy v0.99pb5
#
DISCID=0a129f14
DTITLE=Kristian - Kristian (1972) - Indian Girl (1977)
DYEAR=2010
DGENRE=Suomi Rock
TTITLE0=King of the world
TTITLE1=Hit him hard
TTITLE2=Sit down and laugh
TTITLE3=Sleepful night
TTITLE4=You fly sky-high
TTITLE5=My love song
TTITLE6=Big city girl
TTITLE7=Afterwards
TTITLE8=Old fashioned lady
TTITLE9=Mother´s last son
TTITLE10=Beginning
TTITLE11=You´re my girl
TTITLE12=Indian girl
TTITLE13=Sadman
TTITLE14=Dreams of yesterday
TTITLE15=The poet
TTITLE16=Liar, I´d never lie
TTITLE17=Stranger in your land
TTITLE18=Rock´n´roll man
TTITLE19=Any other rock´n´n roll song
EXTD=
EXTT0=
EXTT1=
EXTT2=
EXTT3=
EXTT4=
EXTT5=
EXTT6=
EXTT7=
EXTT8=
EXTT9=
EXTT10=
EXTT11=
EXTT12=
EXTT13=
EXTT14=
EXTT15=
EXTT16=
EXTT17=
EXTT18=
EXTT19=
PLAYORDER=
